PathFileType	4	(X/Y/Z)	D:\MotionData\Pi-Spi Study\20230118_AMCsubject1\Trimmed_left_abd_18001_rotated.trc
DataRate	CameraRate	NumFrames	NumMarkers	Units	OrigDataRate	OrigDataStartFrame	OrigNumFrames
200.00	200.00	       9	35	mm	200.00	76	       200
Frame#	Time	C7			Sternum			r_AMC1			r_AMC2			r_AMC3			l_AMC1			l_AMC2			l_AMC3			PX			T8			r_humerous			r_elbow_medial			r_elbow_lateral			r_forearm			r_wrist_radius			r_wrist_ulna			r_MCP_1			r_MCP_3			l_humerous			l_elbow_medial			l_elbow_lateral			l_forearm			l_wrist_radius			l_wrist_ulna			l_MCP_1			l_MCP_3			r_ASIS			r_PSIS			l_ASIS			l_PSIS			r_IC			l_IC			TS			AI			AA			
		X1	Y1	Z1	X2	Y2	Z2	X3	Y3	Z3	X4	Y4	Z4	X5	Y5	Z5	X6	Y6	Z6	X7	Y7	Z7	X8	Y8	Z8	X9	Y9	Z9	X10	Y10	Z10	X11	Y11	Z11	X12	Y12	Z12	X13	Y13	Z13	X14	Y14	Z14	X15	Y15	Z15	X16	Y16	Z16	X17	Y17	Z17	X18	Y18	Z18	X19	Y19	Z19	X20	Y20	Z20	X21	Y21	Z21	X22	Y22	Z22	X23	Y23	Z23	X24	Y24	Z24	X25	Y25	Z25	X26	Y26	Z26	X27	Y27	Z27	X28	Y28	Z28	X29	Y29	Z29	X30	Y30	Z30	X31	Y31	Z31	X32	Y32	Z32	X33	Y33	Z33	X34	Y34	Z34	X35	Y35	Z35	

76	0.375	199.7954	1368.8213	-208.4407	339.5864	1326.5406	-197.4529	195.181	1310.3494	-59.4754	227.2095	1313.2136	-20.6124	246.5635	1350.2045	-39.4338	185.764	1349.3723	-328.1303	218.0562	1384.7065	-345.3932	215.7321	1401.808	-295.834	414.7284	1137.729	-207.4521	179.7985	1188.4982	-224.4504	309.6338	1134.2869	-4.5363	248.9664	990.8879	-37.2927	259.4643	1000.6771	27.8575	315.4562	846.8576	52.7677	366.9411	785.76	37.0207	318.566	777.597	52.496	390.4573	703.0468	49.9511	341.1678	698.4946	62.2549	301.0065	1484.3512	-351.7219	365.3853	1568.4877	-456.1555	320.5204	1594.5621	-451.5309	346.9752	1751.3202	-462.3344	385.5688	1822.2307	-447.7345	376.9653	1817.4039	-492.0084	377.0734	1892.7556	-450.5437	374.7781	1888.5381	-493.8155	374.8584	905.5398	-82.007	189.4845	929.6058	-169.8723	381.859	893.1501	-338.8705	192.9626	924.1082	-271.6845	294.3399	968.9447	-55.7061	298.2943	941.9105	-379.4359	127.7549	1290.0392	-291.4866	153.9619	1210.218	-347.4954	162.0275	1378.543	-392.9448
77	0.38	199.7974	1368.8132	-208.4405	339.6208	1326.5538	-197.4398	195.176	1310.355	-59.4505	227.2109	1313.2427	-20.6141	246.5899	1350.1555	-39.4212	185.7988	1349.3761	-328.118	218.0944	1384.7394	-345.3381	215.7728	1401.8114	-295.7936	414.7825	1137.7612	-207.4383	179.8326	1188.4955	-224.4508	309.6595	1134.2825	-4.5377	249.0014	990.8824	-37.3161	259.5079	1000.6742	27.8677	315.4671	846.9075	52.8304	367.0098	785.6964	37.0535	318.5765	777.6207	52.5113	390.5251	703.0462	49.9858	341.3366	698.3775	62.2313	301.016	1484.3758	-351.6696	365.4005	1568.5543	-456.1168	320.5573	1594.5862	-451.4968	347.0072	1751.3272	-462.2867	385.6141	1822.2393	-447.6943	376.9715	1817.4358	-491.953	377.0614	1892.7628	-450.4868	374.7982	1888.5466	-493.7309	374.7947	905.4928	-81.9967	189.3151	929.7429	-169.8814	381.871	893.1617	-338.8692	192.9912	924.1072	-271.665	294.3009	968.9824	-55.677	298.2998	941.907	-379.4026	127.7619	1290.0382	-291.4344	153.9642	1210.2186	-347.4629	162.0601	1378.5509	-392.9033
78	0.385	199.834	1368.8166	-208.438	339.6548	1326.5399	-197.4193	195.1978	1310.3329	-59.4259	227.2871	1313.1709	-20.5918	246.5968	1350.1719	-39.3824	185.8369	1349.3881	-328.1072	218.1191	1384.7256	-345.3136	215.7807	1401.8077	-295.7716	414.8021	1137.76	-207.4325	179.8442	1188.4985	-224.43	309.6835	1134.2867	-4.5139	249.0352	990.8787	-37.2889	259.5298	1000.6674	27.863	315.5858	846.845	52.8439	367.0498	785.7258	37.0803	318.6659	777.6285	52.581	390.5237	703.1259	50.0352	341.3855	698.3533	62.2867	301.0254	1484.4268	-351.6571	365.4296	1568.5902	-456.0701	320.5666	1594.5886	-451.4468	347.0089	1751.3317	-462.2394	385.5784	1822.28	-447.637	376.9952	1817.4248	-491.9029	377.0773	1892.7852	-450.4334	374.8162	1888.5729	-493.679	374.8951	905.5306	-81.9679	189.5157	929.632	-169.8069	381.8811	893.1505	-338.8594	192.9889	924.1135	-271.628	294.4574	968.9399	-55.6849	298.2634	941.9499	-379.3833	127.772	1290.0519	-291.4131	154.0047	1210.246	-347.4246	162.0832	1378.5429	-392.9114
79	0.39	199.8332	1368.7921	-208.3808	339.6672	1326.5339	-197.4122	195.2186	1310.3335	-59.4344	227.262	1313.2144	-20.612	246.5818	1350.2053	-39.3879	185.841	1349.3762	-328.0715	218.165	1384.7513	-345.3053	215.8007	1401.8032	-295.7647	414.8483	1137.7482	-207.3943	179.8705	1188.4976	-224.4263	309.6735	1134.3306	-4.4839	249.095	990.8918	-37.269	259.5709	1000.6998	27.8945	315.6109	846.855	52.8545	367.0654	785.775	37.1264	318.7076	777.605	52.5894	390.586	703.0992	50.0943	341.4772	698.3134	62.2722	301.0792	1484.3828	-351.6038	365.5001	1568.5463	-456.0478	320.1687	1594.4548	-451.964	347.0322	1751.3668	-462.1886	385.6021	1822.34	-447.6049	377.0061	1817.4648	-491.849	377.088	1892.8068	-450.3712	374.8332	1888.5966	-493.6461	374.9369	905.4875	-81.9807	189.5571	929.6381	-169.7887	381.9327	893.1464	-338.8316	193.0373	924.1218	-271.6255	294.4486	968.9519	-55.6253	298.3397	941.8138	-379.3568	127.7886	1290.0282	-291.3446	153.9987	1210.1946	-347.3765	162.0743	1378.495	-392.8546
80	0.395	199.8685	1368.7969	-208.3723	339.6925	1326.536	-197.3809	195.2297	1310.319	-59.4076	227.2863	1313.1887	-20.6052	246.6291	1350.1614	-39.3874	185.8687	1349.3781	-328.0505	218.1712	1384.7432	-345.2289	215.8132	1401.8081	-295.7313	414.8603	1137.7495	-207.3829	179.8878	1188.4935	-224.3945	309.7291	1134.2626	-4.5089	249.1083	990.8613	-37.2477	259.5943	1000.6616	27.8914	315.6148	846.8865	52.8869	367.1606	785.7288	37.132	318.7394	777.5641	52.5403	390.6928	703.0336	50.1092	341.4739	698.3483	62.3229	301.0775	1484.3719	-351.5823	365.4998	1568.587	-455.9698	320.1844	1594.4762	-451.9083	347.0682	1751.3932	-462.1208	385.6276	1822.324	-447.5093	377.037	1817.4819	-491.7713	377.124	1892.844	-450.3191	374.8469	1888.6186	-493.5745	375.0051	905.4713	-81.9594	189.404	929.7598	-169.7946	381.9323	893.129	-338.8105	193.0662	924.1068	-271.579	294.4445	968.9523	-55.6323	298.3579	941.8776	-379.3252	127.8073	1290.0338	-291.3059	154.0071	1210.1865	-347.3288	162.1159	1378.4838	-392.8274
81	0.4	199.898	1368.7983	-208.3654	339.7071	1326.526	-197.4055	195.2572	1310.3145	-59.406	227.3041	1313.1395	-20.566	246.6355	1350.1473	-39.3436	185.9003	1349.3887	-328.0404	218.1799	1384.7373	-345.2327	215.8186	1401.814	-295.6963	414.8928	1137.709	-207.3502	179.9192	1188.4916	-224.4003	309.7251	1134.2714	-4.4661	249.1441	990.8556	-37.2269	259.6184	1000.6505	27.9051	315.7301	846.8564	52.8915	367.2509	785.658	37.1463	318.8102	777.5608	52.602	390.7777	703.0349	50.1407	341.5457	698.3459	62.3424	301.1143	1484.4228	-351.5555	365.5111	1568.6451	-455.9044	320.2289	1594.5068	-451.8579	347.1059	1751.4096	-462.0786	385.6167	1822.3538	-447.451	377.0441	1817.475	-491.698	377.1234	1892.8424	-450.2545	374.8582	1888.6427	-493.5268	374.9429	905.4563	-81.9174	189.6207	929.6386	-169.7277	381.9772	893.1186	-338.7949	193.0623	924.1211	-271.5563	294.533	968.9262	-55.6012	298.1695	941.7715	-379.1776	127.8608	1290.0337	-291.2853	154.0027	1210.1738	-347.2518	162.1187	1378.4613	-392.8316
82	0.405	199.9147	1368.7931	-208.3282	339.7274	1326.5255	-197.3877	195.275	1310.3077	-59.3896	227.3006	1313.1891	-20.5231	246.6612	1350.1547	-39.3363	185.918	1349.3832	-328.0064	218.2082	1384.75	-345.2056	215.8475	1401.8137	-295.664	414.942	1137.7281	-207.3519	179.9351	1188.4702	-224.3832	309.7134	1134.2799	-4.4309	249.185	990.835	-37.2191	259.6363	1000.6428	27.9417	315.7457	846.8342	52.9376	367.2047	785.7788	37.1829	318.8153	777.6406	52.6055	390.8077	703.0716	50.1615	341.6128	698.3195	62.3714	301.1227	1484.3933	-351.5237	365.5442	1568.6493	-455.833	320.6809	1594.6992	-451.2255	347.1196	1751.4193	-462.0142	385.6384	1822.3838	-447.3855	377.0781	1817.525	-491.6399	377.1202	1892.8628	-450.1726	374.8828	1888.6674	-493.4827	375.0132	905.4731	-81.8901	189.6211	929.6392	-169.6891	381.9918	893.1164	-338.7611	193.0897	924.1235	-271.4974	294.5591	968.876	-55.5556	298.236	941.7723	-379.1265	127.8817	1290.019	-291.2487	154.0404	1210.1589	-347.2058	162.1234	1378.4247	-392.7811
83	0.41	199.9239	1368.8019	-208.3141	339.7453	1326.5302	-197.3667	195.2916	1310.2924	-59.3588	227.333	1313.1439	-20.5175	246.6754	1350.1481	-39.3081	185.9256	1349.3887	-327.9812	218.1744	1384.7548	-345.1594	215.8182	1401.8289	-295.6632	414.9353	1137.7308	-207.3303	179.9572	1188.4723	-224.3665	309.7501	1134.2561	-4.4175	249.228	990.8023	-37.1997	259.6768	1000.6518	27.9691	315.8329	846.8041	52.9296	367.2832	785.7395	37.1954	318.9435	777.5231	52.611	390.8114	703.1302	50.2052	341.7025	698.3054	62.3861	301.1192	1484.4629	-351.4954	365.5869	1568.6921	-455.8099	320.7279	1594.7312	-451.1724	347.161	1751.4473	-461.9481	385.6704	1822.4014	-447.3167	377.1075	1817.5231	-491.5607	377.1453	1892.9122	-450.1092	374.8943	1888.694	-493.4278	375.0208	905.456	-81.8724	189.6498	929.6417	-169.6663	381.9965	893.1338	-338.7328	193.0933	924.1289	-271.4594	294.5786	968.8992	-55.6002	298.2101	941.8199	-379.0822	127.8678	1289.9861	-291.1926	154.0746	1210.1178	-347.1499	162.1338	1378.3862	-392.7588
84	0.415	199.9628	1368.7815	-208.2916	339.7411	1326.5173	-197.3553	195.306	1310.285	-59.3411	227.3509	1313.1122	-20.5164	246.6872	1350.1108	-39.2691	185.9249	1349.3833	-327.9624	218.2127	1384.7336	-345.1543	215.8245	1401.8304	-295.6104	414.9783	1137.7393	-207.2914	179.9732	1188.4768	-224.3499	309.7712	1134.2715	-4.4248	249.2734	990.8271	-37.2182	259.7013	1000.6113	27.9328	315.8493	846.8592	52.9361	367.3677	785.7067	37.1917	318.9341	777.6005	52.6435	390.9694	703.0142	50.156	341.6723	698.3829	62.4002	301.1832	1484.4315	-351.469	365.6307	1568.6628	-455.7236	320.9038	1594.6101	-450.9128	347.1628	1751.4678	-461.887	385.6978	1822.4156	-447.2714	377.1225	1817.5522	-491.4944	377.1391	1892.9139	-450.0391	374.9207	1888.7065	-493.3523	375.0551	905.4485	-81.8495	189.6758	929.6475	-169.6415	382.0362	893.1144	-338.7	193.1354	924.1317	-271.4579	294.5829	968.9281	-55.5349	298.463	941.8399	-379.2315	127.8885	1290.0143	-291.1453	154.1009	1210.1272	-347.1016	162.1063	1378.3608	-392.7199
